<?xml version="1.0" encoding="UTF-8" standalone="no"?>
<!-- Created with Inkscape (http://www.inkscape.org/) -->

<svg
   width="253.67674mm"
   height="81.917099mm"
   viewBox="0 0 253.67674 81.917099"
   version="1.1"
   id="svg1"
   xml:space="preserve"
   sodipodi:docname="taxonopy_banner.svg"
   inkscape:version="1.4.2 (f4327f4, 2025-05-13)"
   xmlns:inkscape="http://www.inkscape.org/namespaces/inkscape"
   xmlns:sodipodi="http://sodipodi.sourceforge.net/DTD/sodipodi-0.dtd"
   xmlns:xlink="http://www.w3.org/1999/xlink"
   xmlns="http://www.w3.org/2000/svg"
   xmlns:svg="http://www.w3.org/2000/svg"><sodipodi:namedview
     id="namedview1"
     pagecolor="#ffffff"
     bordercolor="#000000"
     borderopacity="0.25"
     inkscape:showpageshadow="2"
     inkscape:pageopacity="0.0"
     inkscape:pagecheckerboard="0"
     inkscape:deskcolor="#d1d1d1"
     inkscape:document-units="mm"
     showgrid="false"
     inkscape:clip-to-page="false"
     inkscape:zoom="1.0721378"
     inkscape:cx="450.03543"
     inkscape:cy="131.04659"
     inkscape:window-width="1920"
     inkscape:window-height="1111"
     inkscape:window-x="-9"
     inkscape:window-y="-9"
     inkscape:window-maximized="1"
     inkscape:current-layer="layer1"
     inkscape:export-bgcolor="#ffffff00" /><defs
     id="defs1"><linearGradient
       id="linearGradient1"
       inkscape:collect="always"><stop
         style="stop-color:#c1d6b3;stop-opacity:1;"
         offset="0"
         id="stop1" /><stop
         style="stop-color:#95bc7e;stop-opacity:1;"
         offset="1"
         id="stop2" /></linearGradient><linearGradient
       inkscape:collect="always"
       xlink:href="#linearGradient1"
       id="linearGradient2"
       x1="0"
       y1="40.958549"
       x2="253.67674"
       y2="40.958549"
       gradientUnits="userSpaceOnUse" /></defs><rect
     style="fill:url(#linearGradient2);fill-opacity:1;stroke:#d65b09;stroke-width:0;stroke-dasharray:none"
     id="rect118"
     width="253.67674"
     height="81.917099"
     x="0"
     y="0"
     ry="12.541056"
     inkscape:export-filename="taxonopy_1080.png"
     inkscape:export-xdpi="108.13762"
     inkscape:export-ydpi="108.13762" /><g
     inkscape:label="Layer 1"
     inkscape:groupmode="layer"
     id="layer1"
     transform="translate(-22.220677,-52.523765)"><path
       style="fill:#357b95;fill-opacity:1"
       d="m 93.668515,65.493128 c -1.424395,-0.95377 -1.887441,-2.97444 -1.081829,-4.720954 0.434158,-0.941225 2.071932,-3.069167 2.362189,-3.069167 0.372122,0 1.908824,1.827012 2.449972,2.912814 0.978517,1.963377 0.501012,4.018797 -1.159541,4.991257 l -0.665791,0.3899 -0.0029,-1.6599 c -0.0034,-1.92613 -0.145572,-2.6124 -0.541373,-2.6124 -0.331674,0 -0.496407,0.81769 -0.568154,2.82017 l -0.05175,1.44434 z"
       id="path118" /><path
       style="fill:#809351;fill-opacity:1"
       d="m 52.444496,65.535628 c -2.195633,-1.33822 -1.976894,-4.37201 0.510774,-7.084148 l 0.769546,-0.838987 0.954148,1.050654 c 2.239479,2.465991 2.520328,4.888081 0.756438,6.523651 -0.989853,0.91785 -1.114445,0.77042 -1.181861,-1.39842 -0.05584,-1.79651 -0.09576,-1.95791 -0.484193,-1.95791 -0.387135,0 -0.432383,0.17639 -0.529167,2.06281 l -0.105833,2.06281 z"
       id="path117" /><path
       style="fill:#367e97;fill-opacity:1"
       d="m 85.413515,66.461908 c -2.121288,-1.32875 -1.924208,-4.24259 0.470995,-6.963682 l 0.889882,-1.010959 0.913533,1.036601 c 2.377593,2.69789 2.624171,5.28974 0.650912,6.8419 -0.898224,0.70654 -1.020064,0.57607 -1.023212,-1.09572 -0.0034,-1.78563 -0.151794,-2.48708 -0.526277,-2.48708 -0.374483,0 -0.522913,0.70145 -0.526276,2.48708 -0.0031,1.64517 -0.041,1.69833 -0.849557,1.19186 z"
       id="path116" /><path
       style="fill:#869c52;fill-opacity:1"
       d="m 60.61495,66.482008 c -0.309502,-0.16811 -0.779882,-0.657 -1.045289,-1.08644 -0.961529,-1.55579 -0.451949,-3.5264 1.496616,-5.787632 l 0.820797,-0.9525 0.671856,0.635 c 1.653758,1.563042 2.520733,3.535852 2.231472,5.077752 -0.149307,0.79587 -1.474865,2.43641 -1.968623,2.43641 -0.112681,0 -0.266856,-0.87322 -0.342613,-1.94048 -0.150097,-2.11458 -0.17575,-2.19295 -0.657356,-2.00814 -0.307436,0.11797 -0.389989,0.81398 -0.411857,3.47237 -0.0045,0.55315 -0.04507,0.56098 -0.795003,0.15366 z"
       id="path115" /><path
       style="fill:#357d96;fill-opacity:1"
       d="m 100.78446,72.136908 c -0.0581,-0.0941 0.46177,-0.82731 1.15534,-1.62942 0.69358,-0.80211 1.22963,-1.55263 1.19123,-1.66782 -0.16859,-0.5058 -0.61892,-0.27611 -1.94394,0.99153 -1.390054,1.32987 -1.41868,1.34486 -1.609401,0.84323 -0.981445,-2.5814 1.246461,-4.75304 5.097491,-4.96878 l 1.16417,-0.0652 0.0681,0.71141 c 0.2149,2.24568 -0.85674,4.89712 -2.2759,5.631 -0.65817,0.34035 -2.66482,0.44894 -2.84707,0.15406 z"
       id="path114" /><path
       style="fill:#81974f;fill-opacity:1"
       d="m 45.067427,71.904758 c -1.2989,-0.79205 -1.986417,-2.2401 -2.145119,-4.51807 l -0.114285,-1.64042 h 1.044108 c 3.459975,0 5.792504,1.76082 5.521189,4.16792 -0.05784,0.51315 -0.161397,0.98923 -0.230129,1.05796 -0.06873,0.0687 -0.755477,-0.46484 -1.526101,-1.18572 -1.32783,-1.24212 -1.766218,-1.4514 -1.941135,-0.92665 -0.04208,0.12626 0.495628,0.87409 1.194917,1.66186 0.699288,0.78777 1.222209,1.51196 1.162046,1.6093 -0.213698,0.34578 -2.286834,0.18765 -2.965491,-0.22618 z"
       id="path113" /><path
       style="fill:#377f98;fill-opacity:1"
       d="m 108.43226,84.227028 c -0.52605,-0.13747 -0.50933,-0.16991 0.9159,-1.77749 1.11466,-1.25728 1.40614,-1.88854 0.87078,-1.88587 -0.0804,4e-4 -0.80288,0.56907 -1.60541,1.2637 -0.80253,0.69464 -1.54072,1.21256 -1.64041,1.15095 -0.28283,-0.1748 -0.21289,-1.92997 0.10745,-2.69665 0.63663,-1.52367 2.15272,-2.24895 4.85567,-2.3229 l 1.52311,-0.0417 -0.0652,1.16417 c -0.21525,3.84249 -2.17436,5.87421 -4.96187,5.14576 z"
       id="path112" /><path
       style="fill:#678047;fill-opacity:1"
       d="m 38.249868,84.016968 c -1.367567,-0.67391 -2.258561,-2.46888 -2.397468,-4.82987 l -0.07472,-1.27 1.648803,0.0393 c 3.300034,0.0786 5.025275,1.39154 5.015456,3.81685 -0.0057,1.40841 -0.211771,1.41433 -1.788021,0.0514 -0.802502,-0.69391 -1.531768,-1.26165 -1.620591,-1.26165 -0.558543,0 -0.254614,0.62623 0.965643,1.98965 1.306138,1.45938 1.363864,1.56578 0.914746,1.68612 -0.843353,0.22598 -1.940649,0.13463 -2.663848,-0.22174 z"
       id="path111" /><path
       style="fill:#67946d;fill-opacity:1"
       d="m 51.335181,87.547938 c -0.528061,-0.52806 -0.542074,-1.28813 -0.03529,-1.91399 0.380001,-0.46928 0.497386,-0.48132 5.66284,-0.58073 l 5.274796,-0.10152 1.269243,1.0588 c 0.698083,0.58234 1.602617,1.26139 2.010076,1.50899 l 0.740833,0.4502 -7.249583,7.9e-4 c -6.96792,7.6e-4 -7.266031,-0.0157 -7.672917,-0.42254 z"
       id="path110" /><path
       style="fill:#889d52;fill-opacity:1"
       d="m 70.981488,87.951608 c -2.78062,-0.36754 -4.712527,-1.38948 -7.347602,-3.88674 -2.311887,-2.19097 -2.40782,-2.23997 -4.784339,-2.44358 -2.331137,-0.19973 -3.539486,-0.68181 -4.754522,-1.89684 -0.853921,-0.85392 -1.701511,-2.42358 -1.701511,-3.15105 0,-0.23454 -0.349866,-0.48036 -1.024953,-0.72013 -0.563724,-0.20022 -1.464044,-0.75053 -2.000711,-1.22293 l -0.975759,-0.85889 1.081243,-1.04218 1.081242,-1.04218 0.760719,0.66838 0.760719,0.66838 0.05869,-2.86739 0.05869,-2.86739 1.475892,0.0135 c 0.811741,0.007 1.476446,0.0651 1.477122,0.12818 0.09637,8.99224 0.08187,8.75644 0.588836,9.57174 0.621766,0.99991 1.85745,1.57563 3.719355,1.73288 1.428349,0.12063 1.44941,0.11498 1.29731,-0.34783 -0.08504,-0.25875 -0.200405,-2.6612 -0.256376,-5.33878 l -0.101765,-4.86834 h 1.495737 1.495736 c 0.311719,9.38773 -0.04017,3.8294 0.328763,9.75072 0.612363,2.75245 2.491654,5.04584 5.163403,6.30114 1.21969,0.57306 1.684,0.66941 3.571531,0.74117 l 2.169584,0.0825 v 1.5118 1.5118 l -1.11125,0.0295 c -0.611188,0.0162 -1.747787,-0.0546 -2.525777,-0.15745 z"
       id="path109" /><path
       style="fill:#648b5a;fill-opacity:1"
       d="m 95.819784,89.732488 c -2.228912,-1.51788 -2.876391,-1.62557 -9.506686,-1.58112 l -5.767917,0.0387 v -1.6101 -1.6101 l 6.19125,0.0804 c 6.096861,0.0792 6.216511,0.0892 7.848142,0.65808 1.903787,0.66378 3.952275,1.89383 3.952275,2.3732 0,0.37598 -0.969025,2.35873 -1.213058,2.48208 -0.08953,0.0453 -0.766329,-0.32875 -1.504006,-0.8311 z"
       id="path108" /><path
       style="fill:#397b91;fill-opacity:1"
       d="m 108.99958,92.661888 c -0.6994,-0.32675 -1.91743,-1.66483 -1.70701,-1.87525 0.0293,-0.0293 0.85728,-0.11454 1.84,-0.18948 2.91352,-0.22217 2.90915,-0.79845 -0.008,-1.02664 -1.05028,-0.0822 -1.9096,-0.19897 -1.9096,-0.25957 0,-0.39883 1.00261,-1.37743 1.81333,-1.76989 1.6002,-0.77464 3.30866,-0.26417 5.29439,1.5819 l 1.04145,0.96821 -1.05834,0.95694 c -1.9639,1.77575 -3.77851,2.32761 -5.30643,1.61378 z"
       id="path107" /><path
       style="fill:#627d46;fill-opacity:1"
       d="m 38.000181,92.918038 c -1.452054,-0.55753 -3.459841,-1.95225 -3.695881,-2.56736 -0.196696,-0.51258 0.448067,-1.28327 1.810048,-2.16356 2.120385,-1.37047 3.986502,-1.3307 5.253164,0.11195 0.359885,0.40988 0.654336,0.82413 0.654336,0.92054 0,0.0964 -0.881063,0.25978 -1.957917,0.36305 -1.515812,0.14536 -1.957917,0.25945 -1.957917,0.50526 0,0.24939 0.39452,0.34118 1.839024,0.42791 2.132095,0.12801 2.303361,0.22602 1.732056,0.99122 -0.857221,1.14816 -2.609834,1.82071 -3.676913,1.41099 z"
       id="path106" /><path
       style="fill:#398199;fill-opacity:1"
       d="m 108.16768,100.88963 c -0.99593,-0.2272 -1.51419,-0.57896 -1.99191,-1.351942 -0.24324,-0.39356 -0.44226,-0.77577 -0.44226,-0.84934 0,-0.0736 0.86024,-0.13377 1.91165,-0.13377 1.52772,0 1.93681,-0.0656 2.03698,-0.32662 0.19878,-0.51801 -0.0327,-0.59627 -2.04926,-0.69268 -1.04465,-0.05 -1.89937,-0.1671 -1.89937,-0.26035 0,-0.32035 1.10928,-1.48748 1.70804,-1.79712 1.49726,-0.77426 3.75956,-0.0685 5.49166,1.71328 l 0.94947,0.97669 -1.05833,0.9403 c -1.652,1.467762 -3.28822,2.093742 -4.65667,1.781552 z"
       id="path105" /><path
       style="fill:#648043;fill-opacity:1"
       d="m 39.552117,100.89363 c -0.885158,-0.21357 -2.302226,-1.060722 -3.351103,-2.003372 l -0.846667,-0.76092 1.153098,-1.05874 c 0.634204,-0.58231 1.545339,-1.24863 2.024745,-1.48071 1.619709,-0.78408 3.658074,-0.40173 4.552159,0.8539 0.648739,0.91107 0.541946,1.05225 -0.797918,1.05481 -1.687012,0.003 -2.804584,0.21518 -2.804584,0.53189 0,0.40864 0.516773,0.52411 2.345646,0.52411 1.85443,0 2.014384,0.14775 1.233999,1.13985 -0.787822,1.001562 -2.253142,1.502272 -3.509375,1.199182 z"
       id="path104" /><path
       style="fill:#7d9855;fill-opacity:1"
       d="m 69.743271,101.80664 c -0.0063,-9.647652 -0.04002,-10.650402 -0.392302,-11.670202 -0.372745,-1.07906 -0.372745,-1.11165 4e-6,-0.99335 0.211967,0.0673 0.982945,0.18833 1.713284,0.269 1.259527,0.13913 1.334872,0.17937 1.46353,0.78168 0.0746,0.34925 0.14691,4.64149 0.160684,9.53832 l 0.02504,8.903322 -0.651218,0.62168 c -0.35817,0.34193 -1.02492,1.18023 -1.481667,1.86289 l -0.830449,1.2412 z"
       id="path103" /><path
       id="path101"
       style="fill:#357b95;fill-opacity:1"
       d="m 231.04026,94.301174 v 10.169916 10.17044 h 2.01073 2.01073 v -3.47473 -3.47472 l 3.54552,-0.0708 c 3.51472,-0.0701 3.5557,-0.0763 4.70979,-0.72657 4.62323,-2.6048 4.38725,-9.627766 -0.40256,-11.987886 -0.92334,-0.45498 -1.25502,-0.48291 -6.42389,-0.54261 z m 7.65845,3.21531 c 1.54127,0.0531 2.27622,0.33938 2.95124,1.0144 1.40743,1.407429 1.27793,3.901526 -0.26975,5.203816 v -5.2e-4 c -0.61134,0.51438 -0.74633,0.53537 -3.48247,0.53537 h -2.84686 l 0.0584,-3.33365 0.0584,-3.333636 1.69344,-0.06666 c 0.72068,-0.02839 1.32386,-0.03683 1.83761,-0.01912 z" /><path
       style="fill:#1d3f26;fill-opacity:1"
       d="m 194.61367,113.30838 c -0.0109,-0.83852 -0.0347,-4.28683 -0.0529,-7.66292 l -0.0331,-6.138327 h 1.7821 1.78211 l -0.006,1.209487 -0.006,1.20948 1.0524,-0.9462 c 2.57371,-2.313986 7.24494,-2.362796 8.78808,-0.0918 0.991,1.4584 1.11729,2.45903 1.05638,8.36953 l -0.0566,5.48952 h -1.905 -1.905 l -0.10584,-5.18583 c -0.11206,-5.49117 -0.15563,-5.73054 -1.19137,-6.54525 -0.96417,-0.75842 -2.69455,-0.41388 -3.96044,0.78856 -1.14399,1.08665 -1.19791,1.3591 -1.25297,6.33186 l -0.0511,4.61066 -1.95792,0.0429 -1.95791,0.0429 z"
       id="path100" /><path
       style="fill:#1d3f26;fill-opacity:1"
       d="m 159.07355,114.69661 c -5e-5,-0.0752 2.29858,-3.26627 4.00414,-5.55865 0.82285,-1.10595 1.45475,-2.12312 1.40421,-2.26037 -0.0505,-0.13725 -1.17574,-1.7565 -2.50046,-3.59834 -1.32471,-1.84183 -2.47891,-3.467847 -2.5649,-3.613367 -0.12098,-0.204727 0.34185,-0.264577 2.04599,-0.264577 h 2.20233 l 1.62117,2.434154 c 0.89165,1.3388 1.69756,2.43417 1.79091,2.43417 0.0933,0 0.91478,-1.09537 1.8254,-2.43417 l 1.65567,-2.434154 h 2.08942 c 1.14918,0 2.08784,0.0714 2.08592,0.158747 -0.002,0.0873 -0.87145,1.349367 -1.93228,2.804577 -1.06083,1.45521 -2.24736,3.08378 -2.63673,3.61906 l -0.70795,0.97322 0.991,1.35511 c 0.54505,0.74531 1.51009,2.06949 2.14453,2.94261 0.63445,0.87313 1.42423,1.9391 1.75507,2.36884 0.33084,0.42974 0.60152,0.8746 0.60152,0.98859 0,0.29248 -3.94137,0.2461 -4.30856,-0.0507 -0.16164,-0.13066 -1.03248,-1.31616 -1.9352,-2.63444 -0.90272,-1.31829 -1.70984,-2.31841 -1.7936,-2.2225 -0.0838,0.0959 -0.85494,1.22213 -1.71372,2.50271 -0.85878,1.28058 -1.59584,2.37596 -1.63791,2.43417 -0.0741,0.10254 -4.4859,0.15694 -4.48597,0.0553 z"
       id="path99" /><path
       style="fill:#1d3f26;fill-opacity:1"
       d="m 134.69533,114.70061 -1.41235,-0.0779 -0.0693,-1.63112 c -0.0381,-0.89711 -0.0693,-4.70063 -0.0693,-8.45225 v -6.821136 l -3.28084,-0.058 -3.28083,-0.058 v -1.69334 -1.69333 l 8.62542,-0.0553 8.62541,-0.0553 v 1.80154 1.80154 h -3.27843 -3.27843 l -0.0553,8.519586 -0.0553,8.51958 -0.52916,0.0157 c -0.29104,0.009 -1.16473,-0.0194 -1.94152,-0.0622 z"
       id="path98" /><path
       id="path96"
       style="fill:#1d3f26;fill-opacity:1"
       d="m 219.93397,99.189766 c -4.86434,0 -8.22039,3.197474 -8.21966,7.831554 6.2e-4,3.9279 2.51245,7.08672 6.21203,7.81193 3.89186,0.76291 7.78768,-0.96713 9.21959,-4.09484 2.59216,-5.66202 -1.08392,-11.548644 -7.21196,-11.548644 z m -0.0181,3.311934 c 2.11012,0.0216 3.92741,1.89349 3.92741,4.61626 0,1.57603 -0.5779,2.83473 -1.73065,3.76773 -0.92085,0.7453 -2.83198,0.9942 -3.87831,0.50539 -3.05759,-1.4284 -3.34482,-6.47661 -0.46974,-8.25738 0.71195,-0.44097 1.44791,-0.6392 2.15129,-0.632 z" /><path
       id="path94"
       style="fill:#1d3f26;fill-opacity:1"
       d="m 183.25145,99.209916 c -2.04553,0.0671 -4.05511,0.783287 -5.44928,2.181774 -4.51414,4.52812 -2.28872,12.14801 3.92948,13.45499 1.37818,0.28967 3.79201,0.0827 5.2095,-0.447 1.71333,-0.64019 3.62997,-2.56063 4.30103,-4.3093 1.00208,-2.61123 0.54705,-5.7654 -1.1529,-7.99176 -1.5184,-1.98858 -4.20787,-2.975014 -6.83783,-2.888704 z m 0.15813,3.329504 c 2.96949,-0.13186 5.29056,3.31127 3.75223,6.67143 -0.37846,0.82666 -0.78986,1.33526 -1.41232,1.74718 -2.14783,1.42137 -4.91198,0.4994 -5.84771,-1.95078 -0.85539,-2.23979 0.002,-5.07987 1.81178,-6.00325 0.57401,-0.29284 1.14611,-0.44016 1.69602,-0.46458 z" /><path
       id="path92"
       style="fill:#1d3f26;fill-opacity:1"
       d="m 149.97183,99.299316 c -2.57593,-0.004 -4.82649,0.574007 -6.13606,1.576124 l -0.5271,0.4036 0.57929,1.18132 0.57981,1.18184 1.08469,-0.54984 c 2.29129,-1.16108 4.84309,-1.33106 6.24044,-0.41548 0.97719,0.64028 1.65288,3.2574 0.77205,2.99052 -4.72599,-1.43191 -9.09616,0.11792 -10.02523,3.55534 -0.6386,2.36277 1.21734,5.07274 3.85196,5.62446 2.07699,0.43495 4.63294,-0.146 6.07612,-1.38131 1.03284,-0.88411 1.01898,-0.88304 1.17667,-0.0946 0.1782,0.891 1.21485,1.48005 2.60708,1.48105 1.72576,0.001 1.76371,-0.0373 1.76371,-1.79679 0,-1.39257 -0.0487,-1.57235 -0.50798,-1.87327 -0.49792,-0.32628 -0.51011,-0.40612 -0.59221,-3.99356 -0.0932,-4.07227 -0.22849,-4.60827 -1.52704,-6.04562 -1.26936,-1.405017 -2.54635,-1.839814 -5.4162,-1.843814 z m -0.28887,8.165394 c 0.6443,-0.0124 1.35069,0.071 2.08824,0.26148 l 1.05833,0.27337 0.063,0.96376 c 0.0749,1.13961 -0.55018,2.04518 -1.88051,2.72387 -0.52156,0.26607 -1.23842,0.41392 -2.00556,0.41392 -1.56185,0 -2.63291,-0.92253 -2.63291,-2.26756 0,-1.43538 1.37644,-2.33176 3.30936,-2.36884 z" /><path
       style="fill:#357b95;fill-opacity:1"
       d="m 250.35477,120.98467 c -0.43423,-0.17453 -0.47625,-0.33078 -0.47625,-1.77045 v -1.57903 l 1.158,0.11952 c 1.08315,0.11179 1.19604,0.0788 1.74625,-0.51087 0.32354,-0.34671 0.75492,-1.09794 0.95862,-1.66939 l 0.37038,-1.03902 -0.97315,-2.32833 c -1.43425,-3.43153 -5.1651,-12.618917 -5.1651,-12.719267 0,-0.0476 0.90973,-0.0866 2.02163,-0.0866 h 2.02163 l 0.2724,0.687907 c 0.14981,0.37836 1.07364,2.85367 2.05295,5.5007 0.9793,2.64703 1.84403,4.81397 1.92161,4.81542 0.0776,0.001 0.92408,-2.3548 1.8811,-5.23612 0.95702,-2.88131 1.77859,-5.34164 1.82572,-5.46741 0.0649,-0.17313 3.87765,-0.338817 3.87792,-0.16852 2.8e-4,0.18689 -6.63561,17.81928 -6.98251,18.55339 -1.08201,2.28972 -4.37654,3.75606 -6.5112,2.89803 z"
       id="path91" /><path
       style="fill:#377a95;fill-opacity:1"
       d="m 69.764227,122.63193 c 0.08232,-4.54211 0.205889,-6.88012 0.394372,-7.46149 0.744214,-2.29551 2.309445,-4.5426 4.102804,-5.8901 2.155512,-1.61962 3.799388,-2.22861 6.601278,-2.44549 l 1.693334,-0.13108 0.740833,-1.5291 c 1.564267,-3.22871 3.144198,-4.39452 6.41401,-4.73281 2.093442,-0.21659 2.702479,-0.495942 3.331971,-1.528342 0.778421,-1.27665 0.31945,-2.98791 -1.046033,-3.90011 -0.706209,-0.47178 -0.829623,-0.48047 -6.822735,-0.48047 h -6.103518 l -0.05643,5.532922 -0.05643,5.53292 -0.9525,0.24918 c -0.523875,0.13705 -1.169929,0.32164 -1.435676,0.41021 l -0.483177,0.16103 0.05984,-11.605222 0.05984,-11.60521 0.56564,-1.07176 c 1.102726,-2.08943 2.79951,-3.20266 5.307804,-3.48236 2.111631,-0.23547 3.193612,-0.85951 3.208173,-2.79409 0.147091,-2.59761 0.121457,-5.09379 0.02005,-7.68012 h 1.534584 1.534583 v 3.93511 c 0,2.87889 -0.08461,4.214 -0.315209,4.97416 -0.483182,1.59277 -0.501977,1.56823 1.200881,1.56823 1.836199,0 3.122519,-0.53825 3.763013,-1.57459 0.399573,-0.64652 0.431315,-1.03874 0.431315,-5.32956 v -4.63169 h 1.588002 1.588003 l -0.138934,2.91042 c -0.155702,3.26169 -0.121845,3.32662 1.1227,2.15286 0.540481,-0.50974 0.831761,-0.66554 0.890414,-0.47625 0.04794,0.15472 0.505219,0.67597 1.016169,1.15835 l 0.929002,0.87703 -0.974502,0.85779 c -0.535975,0.47179 -1.44318,1.01346 -2.01601,1.20373 -0.780784,0.25933 -1.04151,0.45093 -1.04151,0.76536 0,0.73604 -1.050136,2.6705 -1.813602,3.34083 -1.757553,1.54315 -1.974722,1.59061 -7.817232,1.70829 -5.934235,0.11954 -6.22148,0.18551 -7.123315,1.63605 -0.471781,0.75882 -0.496685,0.98461 -0.496685,4.50304 v 3.70417 l 6.35,0.003 c 7.211278,0.003 7.545542,0.0684 9.342577,1.82744 l 0.875909,0.85738 0.906425,-0.81459 c 1.458369,-1.3106 2.64491,-3.09866 3.350792,-5.04945 1.127723,-3.11662 2.200173,-4.56689 4.082513,-5.52074 1.23407,-0.62535 1.44429,-0.63449 1.44429,-0.0628 0,0.50494 0.83253,2.09257 1.09731,2.09257 0.095,0 0.17269,0.0953 0.17269,0.21166 0,0.11642 -0.19523,0.21167 -0.43385,0.21167 -1.0292,0 -2.17072,0.96789 -2.93323,2.48708 l -0.45153,0.89959 h 1.43306 1.43305 v 1.48166 1.48167 h -1.43555 c -1.77965,0 -2.67495,0.36016 -3.45924,1.39159 -1.038252,1.36541 -2.602654,2.98424 -3.45414,3.57432 -0.684045,0.47405 -0.838187,0.72199 -0.961959,1.54737 -0.31216,2.081632 -1.684943,3.973022 -3.450484,4.754002 -0.515686,0.22812 -1.72623,0.48663 -2.690097,0.57449 -2.439829,0.22237 -3.662199,1.06803 -4.223665,2.92198 l -0.144232,0.47625 h 2.755512 c 1.515532,0 3.260263,-0.1071 3.877181,-0.238 4.135091,-0.87737 7.154168,-4.57574 7.154168,-8.763852 0,-1.17411 0.07123,-1.41025 0.583906,-1.93562 0.32114,-0.3291 0.87494,-0.96781 1.23065,-1.41936 l 0.64674,-0.821 0.31924,1.35016 c 0.31027,1.31222 0.33964,1.35194 1.04477,1.41298 l 0.72553,0.0628 v 1.57763 1.57762 l -0.78972,-2e-5 c -0.69021,-2e-5 -0.80541,0.0733 -0.91426,0.582062 -0.86557,4.04535 -3.78686,7.42524 -7.711998,8.92265 -1.334741,0.5092 -1.599929,0.53022 -8.258191,0.65477 -6.342055,0.11863 -6.976015,0.16438 -8.11957,0.58593 -2.465742,0.90896 -4.349193,2.80017 -5.283928,5.30571 -0.410207,1.09955 -0.453932,1.71651 -0.523805,7.39094 l -0.07624,6.19125 -1.517814,2.4e-4 -1.517813,2.3e-4 z"
       id="path90" /><path
       style="fill:#637e45;fill-opacity:1"
       d="m 63.187723,113.00086 c -7.71e-4,-15.837052 -0.01136,-16.262762 -0.421398,-16.935272 -0.763233,-1.2518 -1.507227,-1.53097 -4.082526,-1.53186 -2.874244,-10e-4 -3.291396,0.17526 -5.011699,2.11758 -1.937592,2.18764 -3.224061,2.7702 -6.430348,2.91191 l -2.362404,0.1044 0.03732,-1.54712 0.03732,-1.54712 1.992799,-0.0449 c 2.086203,-0.047 2.72998,-0.2517 4.123809,-1.31121 0.831166,-0.63181 0.871805,-0.89601 0.137822,-0.89601 -0.855388,0 -2.008147,-0.64133 -3.019387,-1.67983 l -0.923647,-0.94854 -1.933853,-0.0846 -1.933852,-0.0846 v -1.45873 -1.45874 h 1.432316 1.432315 l -0.522324,-1.03076 c -0.632602,-1.24838 -1.572404,-2.07989 -2.560203,-2.26521 -0.622917,-0.11686 -1.063262,-0.51103 -0.575852,-0.51548 0.315284,-0.003 1.11125,-1.41363 1.11125,-1.96956 0,-0.70196 0.166191,-0.70642 1.481628,-0.0398 1.902326,0.96398 3.038588,2.46885 3.91562,5.18585 1.120217,3.47038 1.152563,3.4854 7.514419,3.48938 l 4.974166,0.003 1.202606,0.59057 c 1.36248,0.66908 2.356764,1.69459 3.008364,3.10285 0.439485,0.94983 0.446504,1.1941 0.503604,17.526172 l 0.05791,16.56291 h -1.59249 -1.59249 z"
       id="path89" /><path
       style="fill:#3e7579;fill-opacity:1"
       d="m 76.099704,121.37186 4.77e-4,-7.98025 0.936485,-0.64432 c 0.515067,-0.35437 1.181817,-0.73759 1.481667,-0.85159 l 0.545182,-0.20728 v 8.76156 8.76156 l -1.482144,0.0703 -1.482143,0.0703 z"
       id="path1" /></g></svg>
